<svg width="415" height="502" viewBox="0 0 415 502" fill="none" xmlns="http://www.w3.org/2000/svg">
<g clip-path="url(#clip0)">
<path d="M3 -3V379.053C3 379.053 35.2351 447.788 118.112 439.811C200.989 431.835 218.177 388.876 318.243 468.049C318.243 468.049 353.543 501.185 418 499.967V-3H3Z" fill="#FAF8F5"/>
<path d="M405.149 502C352.355 502 321.072 477.662 320.738 477.381C258.185 428.238 219.838 437.61 166.778 450.6C152.705 454.045 138.138 457.609 121.529 460.6C40.3493 475.232 0.400556 432.67 0 432.23L0.988037 431.335C1.37524 431.762 40.8967 473.777 121.275 459.291C137.858 456.301 152.385 452.75 166.444 449.305C219.878 436.235 258.478 426.796 321.553 476.34C321.94 476.647 359.899 506.152 422.853 499.757L422.987 501.079C416.805 501.72 410.85 502 405.149 502Z" fill="#F9F0E3"/>
</g>
<defs>
<clipPath id="clip0">
<rect width="423" height="504" fill="white" transform="translate(0 -2)"/>
</clipPath>
</defs>
</svg>
